<svg id="Layer_1" data-name="Layer 1" xmlns="http://www.w3.org/2000/svg" viewBox="0 0 14.73 14.73"><defs><style>.cls-1{fill:#00990e;}.cls-2{fill:#f8f9fa;}</style></defs><title>bg-cr</title><circle class="cls-1" cx="7.36" cy="7.36" r="7.36" transform="translate(-3.05 7.36) rotate(-45)"/><path class="cls-2" d="M11.64,4.33a.3.3,0,0,1,0,.13.24.24,0,0,1,0,.12L6.47,11.22a.33.33,0,0,1-.19.13.3.3,0,0,1-.2-.1L3.15,8.42l-.07-.06a.79.79,0,0,1,0-.12.82.82,0,0,1,0-.11l0,0c.38-.42.69-.73.91-1S4.18,7,4.21,7a.32.32,0,0,1,.2.13L6.08,8.75l4.15-5.33a.17.17,0,0,1,.13,0,.27.27,0,0,1,.14,0Z"/></svg>