<svg id="Layer_1" data-name="Layer 1" xmlns="http://www.w3.org/2000/svg" viewBox="0 0 36.01 31.92"><defs><style>.cls-1{fill:#ffc839;}.cls-2{fill:#ff9100;}.cls-3{fill:#fcf9f0;}.cls-4{fill:#1476c6;}</style></defs><title>icon-cup-complete</title><rect class="cls-1" x="6.14" y="28.19" width="23.74" height="3.23" rx="1.62"/><path class="cls-1" d="M26.87,28.19H9.14l4-7.46h9.81Z"/><path class="cls-2" d="M12.89,25.94l1.57-3h7.1l1.57,3Z"/><path class="cls-1" d="M9.33.49V11.77a7.33,7.33,0,0,0,3.77,6.4h9.81a7.31,7.31,0,0,0,3.77-6.4V.49Z"/><path class="cls-3" d="M15.76,9.33,14.12,7.08l2.76.31L18,4.84l1.12,2.55,2.77-.31L20.25,9.33l1.65,2.25-2.77-.31L18,13.82l-1.13-2.55-2.76.31Z"/><path class="cls-2" d="M13.1,18.17h9.81v2.56H13.1Z"/><path class="cls-2" d="M31.58,2.59H26.69V4.84h4.89a1.69,1.69,0,0,1,1.69,1.69v3.58A1.69,1.69,0,0,1,32,11.75L26.57,13a7.26,7.26,0,0,1-1,2.54l6.89-1.64a3.93,3.93,0,0,0,3-3.83V6.53A3.93,3.93,0,0,0,31.58,2.59Z"/><path class="cls-2" d="M4.43,2.59h4.9V4.84H4.43A1.69,1.69,0,0,0,2.74,6.53v3.58A1.69,1.69,0,0,0,4,11.75L9.44,13a7.27,7.27,0,0,0,1,2.54L3.52,13.94a3.94,3.94,0,0,1-3-3.83V6.53A4,4,0,0,1,4.43,2.59Z"/><path class="cls-4" d="M14.4,30.93H12.68a.5.5,0,0,0,0,1H14.4a.5.5,0,0,0,0-1Z"/><path class="cls-4" d="M21.56,22.49h-7.1a.5.5,0,0,0-.44.26l-1.57,3a.48.48,0,0,0,.21.66.46.46,0,0,0,.23.06H23.13a.49.49,0,0,0,.49-.49.46.46,0,0,0-.06-.23l-1.57-3a.48.48,0,0,0-.43-.26Zm-7.85,3,1-2h6.51l1,2Z"/><path class="cls-4" d="M22.32,6.84a.49.49,0,0,0-.48-.25l-2.4.27-1-2.22a.49.49,0,0,0-.65-.25.51.51,0,0,0-.25.25l-1,2.22-2.41-.27a.5.5,0,0,0-.54.44.49.49,0,0,0,.09.35l1.43,2-1.43,2a.47.47,0,0,0,0,.53.5.5,0,0,0,.48.25l2.41-.27,1,2.22a.49.49,0,0,0,.65.25.51.51,0,0,0,.25-.25l1-2.22,2.41.27a.49.49,0,0,0,.48-.25.47.47,0,0,0,0-.53l-1.43-2,1.43-1.95a.48.48,0,0,0,0-.54Zm-3.14,3.95a.48.48,0,0,0-.5.29L18,12.6l-.68-1.52a.48.48,0,0,0-.45-.3h-.05L15.17,11l1-1.35a.51.51,0,0,0,0-.58l-1-1.35,1.66.18a.47.47,0,0,0,.5-.29L18,6.06l.67,1.52a.47.47,0,0,0,.5.29l1.66-.18L19.86,9a.48.48,0,0,0,0,.58l1,1.34Z"/><path class="cls-4" d="M31.58,2.09h-4.4V.49a.49.49,0,0,0-.5-.49H9.33a.49.49,0,0,0-.49.49V2.1H4.43A4.43,4.43,0,0,0,0,6.53v3.58a4.43,4.43,0,0,0,3.4,4.31L10.1,16a7.77,7.77,0,0,0,2.51,2.43v2.16L8.85,27.7H7.75a2.11,2.11,0,0,0,0,4.22H9.14a.5.5,0,1,0,0-1H7.75a1.13,1.13,0,0,1,0-2.25H28.26a1.13,1.13,0,0,1,0,2.25H17.94a.5.5,0,1,0,0,1H28.26a2.11,2.11,0,0,0,0-4.22H27.17L23.4,20.61V18.45A7.77,7.77,0,0,0,25.91,16l6.7-1.6a.49.49,0,0,0-.18-1h0l-5.84,1.39a8.46,8.46,0,0,0,.45-1.4l5.1-1.22a2.17,2.17,0,0,0,1.67-2.12V6.53a2.17,2.17,0,0,0-2.18-2.18h-4.4V3.08h4.4A3.45,3.45,0,0,1,35,6.53v3.58a.49.49,0,1,0,1,0V6.53a4.44,4.44,0,0,0-4.43-4.44ZM8.86,12.4,4.15,11.27a1.18,1.18,0,0,1-.91-1.16V6.53a1.19,1.19,0,0,1,1.19-1.2H8.84v6.44C8.84,12,8.85,12.19,8.86,12.4ZM3.63,13.46A3.44,3.44,0,0,1,1,10.11V6.53A3.46,3.46,0,0,1,4.43,3.08H8.84V4.35H4.43A2.18,2.18,0,0,0,2.25,6.53v3.58a2.17,2.17,0,0,0,1.68,2.12L9,13.45a8.46,8.46,0,0,0,.45,1.4Zm18.79,6.78H13.6V18.66h8.82ZM10,27.7l3.44-6.47h9.21l3.44,6.47Zm12.82-10H13.23a6.84,6.84,0,0,1-2.41-2.37,6.91,6.91,0,0,1-1-3.54V1H26.19V11.77a6.83,6.83,0,0,1-3.41,5.91Zm8.8-12.35a1.2,1.2,0,0,1,1.2,1.2v3.58a1.2,1.2,0,0,1-.92,1.16L27.15,12.4q0-.32,0-.63V5.33Z"/></svg>