<svg id="Layer_1" data-name="Layer 1" xmlns="http://www.w3.org/2000/svg" viewBox="0 0 8 8"><defs><style>.cls-1{fill:#fff;}</style></defs><title>icon-x</title><path class="cls-1" d="M7.9,6.73A.29.29,0,0,1,8,6.94a.32.32,0,0,1-.08.21l-.79.77A.29.29,0,0,1,6.92,8a.32.32,0,0,1-.21-.08L4,5.19,1.28,7.92A.25.25,0,0,1,1.1,8a.32.32,0,0,1-.21-.08L.1,7.15A.32.32,0,0,1,0,6.94.29.29,0,0,1,.1,6.73L2.84,4,.1,1.29A.26.26,0,0,1,.1.88L.87.08A.43.43,0,0,1,1.08,0a.28.28,0,0,1,.2.08L4,2.79,6.71.08A.51.51,0,0,1,6.92,0a.3.3,0,0,1,.21.08l.77.8a.24.24,0,0,1,0,.39L5.16,4Z"/></svg>