<svg id="Layer_1" data-name="Layer 1" xmlns="http://www.w3.org/2000/svg" viewBox="0 0 37.51 36"><defs><style>.cls-1{fill:#d5f5fb;}.cls-2{fill:#ffda00;}.cls-3{fill:#fff;}.cls-4{fill:#ff838e;}.cls-5{fill:#1476c6;}</style></defs><title>icon-startclock</title><rect class="cls-1" x="20.19" y="4.25" width="5.01" height="2.89"/><path class="cls-2" d="M20.06,4.25h5.27a1.76,1.76,0,0,0,1.76-1.76h0A1.76,1.76,0,0,0,25.33.73H20.06A1.76,1.76,0,0,0,18.3,2.49h0A1.76,1.76,0,0,0,20.06,4.25Z"/><circle class="cls-2" cx="22.71" cy="21.21" r="14.06"/><circle class="cls-3" cx="22.71" cy="21.21" r="10.63"/><path class="cls-4" d="M22.71,19.66a1.55,1.55,0,1,1-1.55,1.55A1.54,1.54,0,0,1,22.71,19.66Z"/><path class="cls-5" d="M37.43,19.73a14.78,14.78,0,0,0-11.49-13V4.91A2.49,2.49,0,0,0,25.33,0H20.06a2.49,2.49,0,0,0-.6,4.91V6.77a14.77,14.77,0,0,0-7.21,4A15,15,0,0,0,11,12.15H5.73a.74.74,0,1,0,0,1.47H10a14.25,14.25,0,0,0-1.29,2.81h-8a.74.74,0,0,0,0,1.47H8.29a14.81,14.81,0,0,0-.36,2.81H4.69a.74.74,0,0,0,0,1.47H8A14.84,14.84,0,0,0,8.41,25H3.66a.74.74,0,0,0,0,1.47H8.88a14.59,14.59,0,0,0,3.37,5.21,14.8,14.8,0,0,0,9,4.26A13.94,13.94,0,0,0,22.7,36a14.87,14.87,0,0,0,8.07-2.38.73.73,0,1,0-.8-1.23,13.33,13.33,0,1,1,3.93-3.93.73.73,0,0,0,1.23.79A14.84,14.84,0,0,0,37.43,19.73ZM19,2.49a1,1,0,0,1,1-1h5.27a1,1,0,1,1,0,2.05H20.06A1,1,0,0,1,19,2.49Zm1.89,4V5h3.55V6.52A15.06,15.06,0,0,0,20.92,6.52Z"/><path d="M32.65,30.42a.74.74,0,0,0-.51.21.72.72,0,0,0,0,1,.74.74,0,0,0,1,0,.73.73,0,0,0-.52-1.25Z"/><path class="cls-5" d="M22.71,9.84A11.37,11.37,0,1,0,34.07,21.21,11.38,11.38,0,0,0,22.71,9.84Zm0,21.26a9.9,9.9,0,1,1,9.9-9.89A9.91,9.91,0,0,1,22.71,31.1Z"/><path d="M27.34,15.54l-3.63,3.62a2.23,2.23,0,0,0-1-.23,2.3,2.3,0,0,0-1,.23l-1.62-1.62a.73.73,0,0,0-1,0,.75.75,0,0,0,0,1l1.63,1.62a2.23,2.23,0,0,0-.24,1,2.28,2.28,0,1,0,4.55,0,2.23,2.23,0,0,0-.23-1l3.52-3.52h0l.11-.11a.73.73,0,0,0-1-1ZM22.71,22a.82.82,0,1,1,.81-.81A.81.81,0,0,1,22.71,22Z"/><path d="M30.54,20.48h-.68a.74.74,0,0,0,0,1.47h.68a.74.74,0,0,0,0-1.47Z"/><path d="M15.56,20.46h-.68a.74.74,0,1,0,0,1.47h.68a.74.74,0,0,0,0-1.47Z"/><path d="M22.72,14.78a.73.73,0,0,0,.73-.73v-.68a.73.73,0,0,0-1.46,0v.68A.72.72,0,0,0,22.72,14.78Z"/><path d="M22.7,27.63a.73.73,0,0,0-.73.73V29a.73.73,0,1,0,1.46,0v-.68A.73.73,0,0,0,22.7,27.63Z"/><path d="M.73,25a.74.74,0,0,0-.52.22.74.74,0,0,0,0,1,.74.74,0,0,0,.52.22.73.73,0,0,0,.52-.22.71.71,0,0,0,0-1A.73.73,0,0,0,.73,25Z"/></svg>