<svg id="Layer_1" data-name="Layer 1" xmlns="http://www.w3.org/2000/svg" viewBox="0 0 10.44 10.44"><defs><style>.cls-1{fill:#fff;}.cls-2{fill:#1476c6;}</style></defs><title>icon-user</title><rect class="cls-1" x="-1419.11" y="-44.56" width="1920" height="90"/><path class="cls-2" d="M10.44,10.44H0A9.69,9.69,0,0,1,.05,9.35C.13,9,.86,8.54,2.26,8L3,7.75a2.42,2.42,0,0,0,.74-.34,1.44,1.44,0,0,0,.11-.72V6.52a1.08,1.08,0,0,0-.25-.64,2.54,2.54,0,0,1-.38-1.1,1.14,1.14,0,0,0-.16-.43,2.24,2.24,0,0,1-.22-.65.76.76,0,0,1,0-.47A1.75,1.75,0,0,0,2.94,3c0-.29-.08-.59-.11-.89A1.88,1.88,0,0,1,3.37.72,2.26,2.26,0,0,1,5.22,0,2.28,2.28,0,0,1,7.07.72a1.88,1.88,0,0,1,.54,1.35c0,.3-.07.6-.11.89a1,1,0,0,0,.07.27.84.84,0,0,1,0,.47,2.59,2.59,0,0,1-.22.65,1.14,1.14,0,0,0-.16.43,2.52,2.52,0,0,1-.39,1.1,1.06,1.06,0,0,0-.24.64c0,.55,0,.85.16.93S7.19,7.66,8,8L8.18,8c1.4.52,2.13,1,2.2,1.33Z"/></svg>