<svg id="Layer_1" data-name="Layer 1" xmlns="http://www.w3.org/2000/svg" viewBox="0 0 441 227.09"><defs><style>.cls-1,.cls-7{fill:#469df0;}.cls-1{opacity:0.15;}.cls-2{fill:#ffda00;}.cls-3{fill:#9ad297;}.cls-4{fill:#1476c6;}.cls-5{fill:#116daa;}.cls-6{fill:#227caf;}.cls-8{fill:#e5f2fd;}.cls-9{fill:#a2cdfc;}.cls-10{fill:#ffa668;}.cls-11{fill:#ff862e;}.cls-12{fill:#003261;}.cls-13{fill:#00448c;}.cls-14{fill:#ffb27b;}.cls-15{fill:#ff9841;}.cls-16{fill:#a0cbfa;}.cls-17{fill:#2a8fe3;}.cls-18{fill:#d14a3f;}.cls-19{fill:#ffc08b;}.cls-20{fill:#ffe6d1;}.cls-21{fill:#2776ce;}.cls-22{fill:#0d458d;}.cls-23{fill:#5e9af2;}.cls-24{fill:#f99156;}.cls-25{fill:#59bdcd;}.cls-26{fill:#2f9aa9;}.cls-27{fill:#d24b3f;}.cls-28{fill:#fff;}.cls-29{fill:#c1e0ff;}.cls-30{fill:#1e2e50;}</style></defs><title>img-xacthuc</title><path class="cls-1" d="M355,226.21s45.3,4.4,58.87-22.65c19.72-39.34-19.45-70.25-48.5-64.6C302,151.25,317.25,15.58,215.64,43.27,187.07,51.06,109.88,4.8,88.35,79,83.23,96.6,65.09,98.54,38.76,109.73c-51.53,21.9-28,116.85,8.85,117.22S355,226.21,355,226.21Z"/><path class="cls-2" d="M214.73,79.11l-4.54-.1c1.46,1.89,1.79,3.64.88,5.11s-3.09,2.74-6.33,3.68a58.68,58.68,0,0,0-13.5-62A58.81,58.81,0,0,0,126.89,13.2c-.86.38-1.73.76-2.56,1.17h0c-2.52-.77-5-1.4-7.35-1.88-12-2.43-20.48-.75-23.93,4.73-3.28,5.21-1.49,13.05,5,22.2h0c-.88,1.63-1.67,3.3-2.4,5-.55,1.29-1,2.59-1.49,3.91-12.24.73-18.8,2.89-21.18,6.79C70.22,59.7,74,65.8,86.11,71.72c1.67.82,3.46,1.63,5.34,2.43a57.28,57.28,0,0,0,4.21,16,58.78,58.78,0,0,0,76.92,31.25,59,59,0,0,0,18.66-12.58,58.39,58.39,0,0,0,12.33-18.11c6-1.24,9.91-3.18,11.48-5.74C216.13,83.17,216,81.2,214.73,79.11Zm-14,9.61A89.8,89.8,0,0,1,186,89.92a215.18,215.18,0,0,1-30.21-2q1.38-3,2.69-6.14a82.67,82.67,0,0,0,9.78,2.66A49.43,49.43,0,0,0,178,85.49c6.84,0,11.74-2,14.16-5.82a10.35,10.35,0,0,0,1-2h-3.49a1.92,1.92,0,0,1-.18.31c-1.8,2.86-5.81,4.33-11.45,4.33a46.81,46.81,0,0,1-9.14-1,81.62,81.62,0,0,1-9.21-2.49c.84-2.1,1.66-4.24,2.44-6.41,2.13-5.86,3.95-11.67,5.42-17.25a147.75,147.75,0,0,0,21.55,1.49q7.14,0,14.8-.58a55.65,55.65,0,0,1-3.17,32.68Zm-72.62,29.1c-1.69-.62-2.55-3-3-5a43.67,43.67,0,0,1-.35-12.41c.23-2.56.58-5.28,1.07-8.13a151.09,151.09,0,0,1,20.53,7.1c-1.51,2.61-3,5-4.57,7.21a43.48,43.48,0,0,1-8.22,9.29C132,117.12,129.79,118.43,128.09,117.82Zm19.8-21.14a154.21,154.21,0,0,0-21.51-7.45c.26-1.32.54-2.67.85-4,2,.46,4.08.91,6.16,1.33,6.08,1.25,12.15,2.31,18.1,3.16Q149.72,93.35,147.89,96.68ZM134.73,84.33q-3.53-.72-6.95-1.52c1.07-4.46,2.39-9.11,3.93-13.85a135.81,135.81,0,0,0,23.81,11.75q-1.44,3.47-3,6.73C146.71,86.6,140.73,85.56,134.73,84.33ZM115.21,24.11a36.07,36.07,0,0,0,2.16,3.8,51.47,51.47,0,0,0,13.14,13.47,64.45,64.45,0,0,0,6.91,4.31c-2.23,4.86-4.35,10.05-6.31,15.44-.36,1-.72,2-1.06,3-11.68-7.6-21.57-16.32-28.05-24.76h0a55,55,0,0,1,5.57-7.85c.86-1,1.76-2,2.69-3l.39-.39A54.9,54.9,0,0,1,115.21,24.11Zm49.92-8.42c1.7.61,2.56,3,3,5a43.67,43.67,0,0,1,.35,12.41,124,124,0,0,1-3.24,18.54c-2-.35-3.94-.74-5.84-1.17a84.13,84.13,0,0,1-17.87-6.16,126.67,126.67,0,0,1,9.92-17.39,43.85,43.85,0,0,1,8.22-9.3c1.29-1,3-2.07,4.55-2.07A2.64,2.64,0,0,1,165.13,15.69Zm-6.66,37.74c1.94.45,3.94.85,6,1.21-1.44,5.39-3.2,11-5.26,16.68q-1.19,3.27-2.46,6.44a133.16,133.16,0,0,1-24-11.9c.42-1.22.85-2.44,1.29-3.67,1.92-5.27,4-10.34,6.16-15.09A86.53,86.53,0,0,0,158.47,53.43Zm30.35-25.24a55.11,55.11,0,0,1,11.86,17.58A53.33,53.33,0,0,1,203.15,53a162.31,162.31,0,0,1-34.85-.88,125.94,125.94,0,0,0,3.26-18.75c.54-6.21.47-13.57-2-17.71.58.23,1.16.46,1.74.71A54.75,54.75,0,0,1,188.82,28.19ZM149.75,12A55,55,0,0,1,161,13.15c-4.34,1.89-8.77,7.15-12.14,12a129.68,129.68,0,0,0-10.13,17.75A60.8,60.8,0,0,1,132.54,39c-9.24-6.56-13.31-13.62-14.79-16.82a53.66,53.66,0,0,1,7.14-4.3h0c1-.52,2-1,3.1-1.44l.23-.1.05,0,.67-.27.19-.08A55,55,0,0,1,149.75,12Zm-54,6.91c1.8-2.85,5.81-4.32,11.45-4.32a46.81,46.81,0,0,1,9.14,1c1.28.26,2.59.57,3.92.92h0a57.73,57.73,0,0,0-12,9.26c-.76.75-1.49,1.52-2.21,2.33-.89,1-1.74,2-2.56,3.05a59.87,59.87,0,0,0-3.64,5.2h0C94.85,29,93.35,22.7,95.74,18.91Zm3.05,26.86c.49-1.13,1-2.25,1.55-3.34h0C107.17,51,117.24,59.69,129,67.26c-1.66,5.07-3.09,10.06-4.23,14.84a226.55,226.55,0,0,1-23.44-6.92c-1.46-.52-2.87-1.06-4.23-1.59-.8-.32-1.59-.64-2.37-1-.11-1.19-.2-2.4-.23-3.61,0-.58,0-1.14,0-1.72s0-1.36,0-2A55.77,55.77,0,0,1,97,50.6c.25-.81.52-1.6.82-2.38S98.45,46.58,98.79,45.77ZM88.82,70C78.26,64.81,73.43,59.84,75.59,56.3c1.75-2.86,8.09-4.79,17.81-5.51a57.69,57.69,0,0,0-2.21,12.4c-.09,1.25-.13,2.5-.15,3.77v.33c0,1.26,0,2.53.12,3.78C90.36,70.71,89.58,70.34,88.82,70Zm8,6.33c1.43.54,2.89,1.07,4.4,1.59,6.91,2.4,14.67,4.63,23,6.6-.3,1.35-.58,2.67-.83,4q-1-.25-2-.48a123.49,123.49,0,0,0-24.06-3.23,53.9,53.9,0,0,1-2.17-9.13Zm2,12.5-.36-.89A123.71,123.71,0,0,1,120.64,91q1.08.24,2.16.51c-.52,3-.9,5.91-1.13,8.63-.45,5.14-.48,11.08,1,15.31A55.54,55.54,0,0,1,98.79,88.8Zm72.47,29.42A55.54,55.54,0,0,1,133,120c4.09-2.15,8.2-7.07,11.36-11.61,1.64-2.33,3.27-4.92,4.88-7.72a156.34,156.34,0,0,1,26.59,15.39C174.33,116.84,172.81,117.57,171.26,118.22Zm17.56-11.84a54.6,54.6,0,0,1-10.06,8,158.81,158.81,0,0,0-28-16.41c1.35-2.47,2.68-5.08,4-7.8a240,240,0,0,0,25.48,2.09c2.05,0,4.05,0,6,0a108,108,0,0,0,13.32-.89A55.22,55.22,0,0,1,188.82,106.38Z"/><path class="cls-3" d="M333.26,211c-1.25-4.86-9.71-1.1-16.68,3-.33-.52-.66-1-1-1.53,5-3.09,12-8.24,9.33-11.37s-7.78,3.91-11,9.08C305.27,199,292.47,191,292.47,191s53.4-44.36,13.5-67.77-70.21,58.95-70.21,58.95S208.5,157,182.47,166.28c-26.74,9.57-10,27.32-33.24,32.12-2.74-10.47-7.79-25.23-14.7-26.09-9.12-1.15-5.28,10.27,8.58,26.95-2.69.25-5.75.37-9.25.36-37.23-.11-27.68,26.7-27.68,26.7l215.28.49a26.64,26.64,0,0,0-2.16-7.74C326.67,217.91,334.44,215.6,333.26,211Z"/><path class="cls-4" d="M221.88,108l-9.39,111.62s-1,6.77,4,6.78c8.28,0,41.19,0,41.19,0s-6.23-1.41-6.15-4.58c.09-3.73,11-114.88,11-114.88Z"/><path class="cls-4" d="M260.4,224.39c-1.63,0-33.06.1-41.12,0-3.52,0-4.13-3.13-4.16-5.12a9.14,9.14,0,0,1,.11-1.66l.24-2.9.62-7.4.55-6.53.71-8.4.59-7.08L224.61,106l40.68-1.06s-4.59,46.52-7.83,80.38c-.36,3.77-.71,7.39-1,10.77-.11,1.07-.21,2.13-.3,3.15-.3,3.21-.58,6.15-.82,8.75-.12,1.37-.24,2.64-.35,3.8-.41,4.57-.65,7.49-.66,8a5.11,5.11,0,0,0,.08.9C255.06,224.27,259.79,224.39,260.4,224.39Z"/><polygon class="cls-4" points="123.1 47.26 145.97 139.12 149.1 151.7 159.75 194.48 357.63 194.48 318.37 47.26 123.1 47.26"/><polygon class="cls-4" points="123.1 47.26 119.93 48.32 155.54 197.68 159.75 194.48 123.1 47.26"/><polygon class="cls-5" points="155.54 197.68 352.2 197.68 357.63 194.48 159.75 194.48 155.54 197.68"/><rect class="cls-6" x="224.6" y="224.43" width="42.58" height="2.02"/><polygon class="cls-5" points="256.36 197.68 256.14 199.22 216.09 207.31 216.64 200.78 216.9 197.68 256.36 197.68"/><path class="cls-5" d="M260.4,224.39c-1.63,0-33.06.1-41.12,0-3.52,0-4.13-3.13-4.16-5.12l39.85-7.5c-.41,4.57-.65,7.49-.66,8a5.11,5.11,0,0,0,.08.9C255.06,224.27,259.79,224.39,260.4,224.39Z"/><polygon class="cls-5" points="246.68 164.68 159.75 194.48 149.1 151.7 246.68 164.68"/><polygon class="cls-7" points="123.1 47.26 318.37 47.26 350.05 165.58 152.56 165.58 123.1 47.26"/><path class="cls-4" d="M263.94,180.54a6.71,6.71,0,0,0-6.28-5.26,4.21,4.21,0,0,0-4.23,5.26,6.68,6.68,0,0,0,6.27,5.25A4.2,4.2,0,0,0,263.94,180.54Z"/><polygon class="cls-8" points="340.85 160.45 158.01 160.45 137.31 77.97 135.72 71.65 134.37 66.25 131.19 53.6 311.39 53.6 314.87 66.25 316.36 71.65 318.11 77.97 340.85 160.45"/><polygon class="cls-9" points="314.87 66.25 134.37 66.25 131.19 53.6 311.39 53.6 314.87 66.25"/><path class="cls-8" d="M139.83,57.74a1.19,1.19,0,0,0-1.18,1.58,2.15,2.15,0,0,0,2,1.58,1.19,1.19,0,0,0,1.19-1.58A2.15,2.15,0,0,0,139.83,57.74Z"/><path class="cls-8" d="M145.09,57.74a1.19,1.19,0,0,0-1.19,1.58,2.16,2.16,0,0,0,2,1.58,1.19,1.19,0,0,0,1.18-1.58A2.14,2.14,0,0,0,145.09,57.74Z"/><path class="cls-8" d="M152.72,59.32a2.15,2.15,0,0,0-2-1.58,1.19,1.19,0,0,0-1.19,1.58,2.16,2.16,0,0,0,2,1.58A1.19,1.19,0,0,0,152.72,59.32Z"/><path class="cls-10" d="M61.86,78.39a4.64,4.64,0,0,0-.32-3.34c-.88-1.59.54-2.68.18-3.16s-2.69-.43-3.49,1.87a7.06,7.06,0,0,0,.55,4.89Z"/><path class="cls-11" d="M52.06,91.05a2.81,2.81,0,0,0,3.59-2.28L58,78.65s.48-.78,2.16-.71,2.32,1,2.32,1,1.13,17.81-4.15,20.32S47.07,89.57,52.06,91.05Z"/><path class="cls-12" d="M63,226.3H48.14c-1.06-1-1.41-6.58-1.41-6.58s4.61-4.15,6.11-.86c1.43,3.12,5.38,4.78,7.74,5.19A2.63,2.63,0,0,1,63,226.3Z"/><path class="cls-12" d="M45,226.3H30.15c-1.06-1-1.41-6.58-1.41-6.58s4.61-4.15,6.11-.86c1.43,3.12,5.38,4.78,7.74,5.19A2.63,2.63,0,0,1,45,226.3Z"/><path class="cls-12" d="M55.68,148.56s-2.12,13.51-10,37.49-9,34.37-9,34.37l-8.45-.24s-.07-26.21,3.56-38.26.78-43.48.78-43.48Z"/><path class="cls-13" d="M59.79,139.18a327.9,327.9,0,0,1-3.22,45.35c-3.53,25-2.33,35.61-2.33,35.61l-8.44.28s-5-25-3.59-37.52S35.3,140,35.3,140Z"/><path class="cls-14" d="M43.46,91.54l4,2.95,5.75-1.21c-.08-.53-.46-2.7-.81-4.67l-.06-.35c-.29-1.67-.55-3.11-.55-3.11L46.4,82.47l-2-1s.15,1.85.17,2.12A17.16,17.16,0,0,1,43.46,91.54Z"/><path class="cls-15" d="M52.79,90.05c-.13,0-7.83-2.32-8.66-2S42.8,89.9,42.8,89.9l12.59,2.85A6.33,6.33,0,0,0,52.79,90.05Z"/><path class="cls-15" d="M32.06,141.69c1.31,5.95,23,6.66,28.61,1.26.64-.62.67-3.48.43-7.34-.47-7.55-2-18.9-2-24.7a46.32,46.32,0,0,0-.93-8.27,67.74,67.74,0,0,0-2.75-9.9S44.78,89.32,42.8,89.9C33.24,92.71,30.76,135.74,32.06,141.69Z"/><path class="cls-11" d="M61.1,135.61c-.47-7.55-2-18.9-2-24.7a46.32,46.32,0,0,0-.93-8.27l-6.38-1.13S45.52,127,61.1,135.61Z"/><path class="cls-10" d="M45,83.68c1.18,2.26,5.57,4.21,7.4,4.93l-.06-.35c-.29-1.67-.55-3.11-.55-3.11L46.4,82.47C45.21,82.46,44.49,82.76,45,83.68Z"/><path class="cls-14" d="M54.38,84.84s-9.69,3-11.48-3-4.24-9.76,1.87-12,8-.23,9.09,1.65S56.85,83.89,54.38,84.84Z"/><path class="cls-12" d="M53,71.55s-.61,7-2.07,6.74-2.79-.53-2.57,1.6,2.23,4.58-2.26,5-11-11.22-9.73-13.42C39.93,65.1,58.15,63.82,53,71.55Z"/><path class="cls-16" d="M66.62,70l-9.39,2.51.29,3.87,9.58-.07c.75,0,1.26-1.51,1.13-3.26S67.38,70,66.62,70Z"/><path class="cls-7" d="M58.22,74.41c-.08-1.07-.52-1.91-1-1.87s-.77.93-.69,2,.52,1.9,1,1.87S58.3,75.48,58.22,74.41Z"/><path class="cls-7" d="M61.7,74.28l-2.9.06a1.45,1.45,0,0,0,.06.87l2.9.19Z"/><path class="cls-16" d="M72.09,69.89,61.31,72.77l.33,4.45,11-.08c.87-.06,1.46-1.74,1.31-3.74S73,69.83,72.09,69.89Z"/><path class="cls-7" d="M62.44,74.92c-.09-1.22-.6-2.19-1.13-2.15s-.89,1.07-.8,2.3.6,2.19,1.13,2.15S62.54,76.15,62.44,74.92Z"/><path class="cls-14" d="M64.12,78.38a4.67,4.67,0,0,1-.61-3.31c.42-1.76-1.25-2.43-1-3s2.47-1.15,3.87.85a7.1,7.1,0,0,1,.8,4.86Z"/><path class="cls-15" d="M50.86,93.17a64.5,64.5,0,0,1,10.83-1A2.82,2.82,0,0,0,64.53,89l-.91-10.17A3.72,3.72,0,0,1,65.9,77.4c1.78-.43,2.35.53,2.35.53s6.08,16.61,1.69,20.46-21,6.27-21,6.27Z"/><path class="cls-2" d="M408.58,24.15C408,37.53,404.89,53.9,395,67.08l-1.09,1.43q-1.67,2.16-3.39,4.18a3.73,3.73,0,0,1-5.09.56l-43.91-33a3.47,3.47,0,0,1-1.37-2.56,3.37,3.37,0,0,1,.56-2Q342.26,33.32,344,31c.35-.49.71-1,1.07-1.46,9.89-13.17,24.75-20.72,37.44-25A119.18,119.18,0,0,1,399.68.13,7.77,7.77,0,0,1,401.82,0a6.79,6.79,0,0,1,2.84.91A7,7,0,0,1,408,6.38,119.56,119.56,0,0,1,408.58,24.15Z"/><path class="cls-17" d="M343.92,31c-1.28,1.75-2.5,3.53-3.66,5.3a2.63,2.63,0,0,0,.63,3.53l45,33.81a3.06,3.06,0,0,0,4.16-.45q1.94-2.27,3.8-4.68Z"/><path class="cls-18" d="M382.94,44.38a13.32,13.32,0,0,1-10.62-21.32h0a13.32,13.32,0,1,1,12.52,21.18A13.5,13.5,0,0,1,382.94,44.38ZM383,20.83a10.34,10.34,0,0,0-1.46.1,10.18,10.18,0,0,0-6.74,4h0a10.22,10.22,0,1,0,8.2-4.09Z"/><path class="cls-19" d="M405.67,4a7.52,7.52,0,0,0-1-3.09A6.79,6.79,0,0,0,401.82,0s0,.11,0,.17A119.56,119.56,0,0,1,402.41,18c-.58,13.38-3.69,29.75-13.58,42.92-.36.49-.73,1-1.1,1.44-.24.32-.49.63-.74.94l4.3,3.23.27-.34,1.1-1.44c9.89-13.17,13-29.55,13.58-42.92A119.5,119.5,0,0,0,405.67,4Z"/><path class="cls-17" d="M408,6.38A6.91,6.91,0,0,0,399.68.13a119.18,119.18,0,0,0-17.22,4.4l26.13,19.62A120.74,120.74,0,0,0,408,6.38Z"/><path class="cls-18" d="M347.57,49.07c-4.28-2.84-11-.23-15.05,5.84s.45,16.14.45,16.14,11,.23,15-5.84S351.85,51.91,347.57,49.07Z"/><path class="cls-18" d="M371.64,66.75c-4.28-2.84-11-.23-15.05,5.84s.45,16.14.45,16.14,11,.23,15-5.84S375.92,69.59,371.64,66.75Z"/><path class="cls-2" d="M343,55.88c-2.95-2-7.61-.16-10.39,4s.31,11.14.31,11.14,7.61.16,10.39-4S346,57.84,343,55.88Z"/><path class="cls-2" d="M367.14,73.54c-2.95-2-7.61-.16-10.39,4s.31,11.14.31,11.14,7.61.16,10.39-4S370.1,75.5,367.14,73.54Z"/><path class="cls-20" d="M377,37.68l13.8-2.44A9,9,0,0,1,377,37.68Z"/><path class="cls-20" d="M391.91,30.6l-17.48,3.31a8.86,8.86,0,0,1-.52-3,9,9,0,0,1,18-.3Z"/><path class="cls-14" d="M113.37,156.53a11.24,11.24,0,0,0,4.79.19c1.86-.56,5.07.36,5.58,1s.33,1-.59,1.18-4.18,1.63-6.33.82a17.19,17.19,0,0,0-4.94-.83Z"/><path class="cls-21" d="M88.07,131.09s3.29,23.38,8.73,25.47c2.69,1,14.57,3.38,18.08,3.62,0,0,.86-.7.65-3.55,0,0-12.44-4.56-14.21-7-2.63-3.7,1.63-15.1-1.67-18.58S90.79,126,88.07,131.09Z"/><path class="cls-22" d="M93,221.07V216h8a.39.39,0,0,0,.4-.39v-.82a.4.4,0,0,0-.4-.39H93v-29a1.49,1.49,0,0,0-1.48-1.48H90a1.48,1.48,0,0,0-1.48,1.48v29h-8a.4.4,0,0,0-.39.39v.82a.39.39,0,0,0,.39.39h8v5.1c-5.81.44-10.46,2.53-11.76,5.23H104.8C103.49,223.6,98.84,221.51,93,221.07Z"/><path class="cls-12" d="M89.18,180.35a41.76,41.76,0,0,0,3.21,4.59c3.53,4.47,7.38,8.14,8,11.62a17.65,17.65,0,0,0,.62,2.23c.28.8.63,1.63,1,2.5a77,77,0,0,0,6,10.23c3.88,5.74,7.52,10.52,7.52,10.52l6.67-.28c-.26-.67-3.18-8.59-7.07-18.27-1.58-3.93-3.27-8.11-4.89-12.15-.22-.53-.43-1.07-.65-1.6-.49-1.24-1-2.45-1.46-3.63-3.65-9.09-6.57-16.33-6.57-16.33S87,164.24,85.48,167.83C84.23,170.79,85.25,173.69,89.18,180.35Z"/><path class="cls-12" d="M115.8,220.7s.34,5.51,1.4,5.59h12.13a2.2,2.2,0,0,0-2-2c-2-.34-5.25-1.72-6.44-4.32S115.8,220.7,115.8,220.7Z"/><path class="cls-12" d="M100.33,205.09s-4.64,3-4.19,3.95c.06.13,2.63,4.73,2.63,4.73l3.31,5.85a2.18,2.18,0,0,0,.73-2.71c-.66-1.88-1.06-5.43.63-7.73S100.33,205.09,100.33,205.09Z"/><path class="cls-13" d="M106.6,167.14S125,178.58,127,186.26s-24.41,24.07-24.41,24.07-2.91-2.56-3.42-4.43c0,0,12-14.33,14.56-17.55,1.59-2-23.56-6.83-26.64-11.61s-2-8.8-2-8.8Z"/><rect class="cls-15" x="70.62" y="181.83" width="40.29" height="10.24" rx="1.37"/><path class="cls-14" d="M100.93,129.62c-4.4,1.14-11.69-2.94-11.69-2.94a10.78,10.78,0,0,0,3.88-6.08c0-.21.1-.42.14-.64l2.26-.48,3.36,3a29.61,29.61,0,0,1-.5,3.4c-.07.38-.15.78-.25,1.21A10.37,10.37,0,0,1,100.93,129.62Z"/><path class="cls-23" d="M107.17,166.54a1,1,0,0,1,0,.14c-.42,1.18-4.37,2.79-8,3.91-1.3.4-2.55.74-3.59,1-2.81.64-9.83,1.78-10.45-.14-.71-2.23.12-15.12-.51-23.59-.75-10.35,2.12-19.77,6.11-22.85.3-.22.89.37,2.62,1.19a7.73,7.73,0,0,0,4.85.64L99.51,128a15,15,0,0,1,4.79,7.4,60.61,60.61,0,0,1,1.31,9.31c.12,1.47.23,3,.32,4.55.14,2.47.26,5,.32,7.32a.61.61,0,0,1,0,.14v.08c0,.24,0,.5,0,.74.06,2.12,0,4.09.13,5.77v.14a9.18,9.18,0,0,0,.74,2.62A1.05,1.05,0,0,1,107.17,166.54Z"/><path class="cls-21" d="M107.17,166.54a1,1,0,0,1,0,.14c-.42,1.18-4.37,2.79-8,3.91a32,32,0,0,1-6.57-20.25l13.68,6.21a.61.61,0,0,1,0,.14v.08c0,.24,0,.5,0,.74.06,2.12,0,4.09.13,5.77v.14a9.18,9.18,0,0,0,.74,2.62A1.05,1.05,0,0,1,107.17,166.54Z"/><path class="cls-24" d="M98.88,122.48a29.61,29.61,0,0,1-.5,3.4,8.93,8.93,0,0,1-5.26-5.28c0-.21.1-.42.14-.64l2.26-.48Z"/><path class="cls-14" d="M100.21,122.45s-7.21.81-7.64-3.68-1.66-7.42,2.92-8.13,5.64.92,6.15,2.39S102.07,122.12,100.21,122.45Z"/><path class="cls-22" d="M92.6,119.08a7.38,7.38,0,0,1,7-6.58c4.49-.43,2-4.29,1.51-4.91,0,0-3.44.47-7,1C86.75,109.87,91.87,118.15,92.6,119.08Z"/><polygon class="cls-21" points="132.84 145.87 127.76 161.49 109.91 161.11 109.89 162.2 128.1 162.59 133.47 146.08 132.84 145.87"/><path class="cls-14" d="M111.87,160.12a11.21,11.21,0,0,0,4.74.72c1.91-.35,5,.92,5.43,1.65s.22,1-.72,1.11-4.34,1.15-6.38.12a17.06,17.06,0,0,0-4.82-1.38Z"/><path class="cls-23" d="M89.52,132.05s.69,23.6,5.87,26.28c2.56,1.32,14.11,5,17.57,5.58,0,0,.94-.6,1-3.44,0,0-11.86-5.92-13.35-8.58-2.2-4,3.29-14.83.39-18.65S92.78,127.33,89.52,132.05Z"/><path class="cls-14" d="M411.75,150.22l.86,1.41c.45.52.57.81.93,1a4.45,4.45,0,0,1,2.58,3.8s0,1.3-.9.88-.49-.38-1.72-.95-1.69-2.36-1.8-3l-1-1.32Z"/><path class="cls-14" d="M386.23,225.21a1.19,1.19,0,0,1-.77,1h0a7.78,7.78,0,0,1-3.7.08l-.52-.06H381c-1.49-.1-1.37.36-4.21.34-3.24,0-4.34-1.11-4.49-1.57s1.3-.7,2.88-1.05l.24-.06.63-.14c1.89-.44,3.76-1,4.38-2.82s.5-7.64.5-7.64h5.74s-1.51,6.31-1.35,8.13c.09,1,.55,1.25.73,2.09,0,.06,0,.12,0,.18A5.81,5.81,0,0,1,386.23,225.21Z"/><path class="cls-25" d="M392.91,163.43c-.49,2.72-1.18,5.53-1.78,8.45a43.7,43.7,0,0,0-.94,15.06,19.53,19.53,0,0,1,.15,2.28c.15,9.49-4.09,26.7-4.09,26.7a7.56,7.56,0,0,1-3.09.41,9.89,9.89,0,0,1-2.52-.69s-.4-10.68-.43-25c0-10.4-2-24.1-2.47-32.15A103.27,103.27,0,0,1,378,147.1s8.46-6.8,11.5-3.32S394.72,153.26,392.91,163.43Z"/><path class="cls-26" d="M390.19,186.94a19.53,19.53,0,0,1,.15,2.28C384,180,382.61,160,382.61,160l7,3.38s.76,3.75,1.56,8.48A43.7,43.7,0,0,0,390.19,186.94Z"/><path class="cls-14" d="M404.53,225.21a1.16,1.16,0,0,1-.77,1h0a7.78,7.78,0,0,1-3.7.08l-.51-.06h-.22c-1.48-.1-1.37.36-4.21.34-3.24,0-4.33-1.11-4.48-1.57s1.29-.7,2.88-1.05l.23-.06.63-.14c1.89-.44,3.76-1,4.38-2.82s-.28-7.56-.28-7.56l5.32-.44s-.33,6.41-.17,8.23a14.73,14.73,0,0,0,.75,2.35,1.16,1.16,0,0,1,0,.18A5.4,5.4,0,0,1,404.53,225.21Z"/><path class="cls-25" d="M403.78,216.41a12.28,12.28,0,0,1-2.35.84,11.2,11.2,0,0,1-3-.18,139.43,139.43,0,0,0-2.89-17.89,168.46,168.46,0,0,0-8.65-27.41c-.84-2-4.3-11.37-4.89-13.74-1.78-7.16,0-6.39,0-6.39l15.53-1.82s1.91,1,2.79,11.09c.27,3,.3,16.11.7,18.59a27.69,27.69,0,0,0,1.33,5.56C405.23,192.15,403.78,216.41,403.78,216.41Z"/><path class="cls-27" d="M404.53,225.21a1.16,1.16,0,0,1-.77,1h0a9,9,0,0,1-3.69.07l-.52-.05h-.22c-1.48-.1-1.37.36-4.21.34-3.24,0-4.33-1.11-4.48-1.57s1.29-.7,2.88-1.05a9.64,9.64,0,0,0,4.89.86c2.18-.21,4.41-1.08,6-1.3a1.16,1.16,0,0,1,0,.18A5.4,5.4,0,0,1,404.53,225.21Z"/><path class="cls-27" d="M386.23,225.21a1.19,1.19,0,0,1-.77,1h0a9.07,9.07,0,0,1-3.7.07l-.52-.05H381c-1.49-.1-1.37.36-4.21.34-3.24,0-4.34-1.11-4.49-1.57s1.3-.7,2.88-1.05a9.72,9.72,0,0,0,4.9.86c2.18-.21,4.41-1.08,6-1.3,0,.06,0,.12,0,.18A5.81,5.81,0,0,1,386.23,225.21Z"/><path class="cls-18" d="M380,103.31c-.53-4.29.81-11.14,9.36-10s11.25,9.5,9.53,13.24,2.48,4.64,3.8,8.66c1.13,3.45,1.53,7.73,3.37,9.66,5.92,6.2-5.69,15.74-12.68,13.73-12.74-3.67-14.39-4.21-13.93-14.23.23-5.12,4.22-7.11,1.69-8.6C375,112.14,381.21,113,380,103.31Z"/><path class="cls-14" d="M392.59,114.52l-2.36,6.09-5.08.25-2.54-3.79a7.05,7.05,0,0,0,2.53-4.68,13.84,13.84,0,0,0,.09-3.13c0-.33-.07-.52-.07-.52l6.33-1.93h0c.08,1.68.17,3,.27,4C392.15,114.44,392.59,114.52,392.59,114.52Z"/><path class="cls-14" d="M382.59,114.31c.33,0,5.88-1.13,15.26,1.27,0,0-5.14,23.53-3.39,28a46.76,46.76,0,0,1,2.4,8.37l-18.92.23s.26-15.22-.61-20.61S382.59,114.31,382.59,114.31Z"/><path class="cls-2" d="M406.75,138.93c-.95-6.54-4.47-20-6.83-22.17-2.09-1.94-6.59-2.12-6.59-2.12h0c-.93,1.47-4.14,5.11-8.11,4.45-2.14-.35-2.58-4.21-2.63-4.72l0-.06h-.07c-.62.09-5.6.9-7.08,3.44-2.18,3.76-4.56,15-6.9,14.86-1.07-.07-11.85-4.13-11.85-4.13a4.75,4.75,0,0,0-1.46,3.75,112.05,112.05,0,0,0,9.83,5.84c.63.32,1.24.61,1.81.86,1.63.71,3,1.13,3.74.95a2.88,2.88,0,0,0,.68-.28,13.49,13.49,0,0,0,3.21-3.22c.73-.94,1.43-2,2.05-2.9l0-.06a69,69,0,0,1,.26,10.54c-.21,2.32-.36,7.36,0,8.66.84,2.71,7,3.42,12.65,3.14a37.76,37.76,0,0,0,6-.6,4.37,4.37,0,0,0,3.58-2.86c.63-1.52-2.28-8.64-2.56-11.75a18.16,18.16,0,0,1,.9-7.38c2,4.65,4.06,8,4.33,8.69.56,1.52,9.16,11.11,9.16,11.11a4.07,4.07,0,0,0,1.24-.5,2.94,2.94,0,0,0,.86-.86C411.51,148,406.75,138.93,406.75,138.93Z"/><path class="cls-11" d="M399.1,152.31a4.37,4.37,0,0,1-3.58,2.86c-2.68-.52-4.45-5.45-5.36-7.88-1.05-2.8,4.42-17.18,5.93-17,1.12.1,1.31,2,1.35,2.94a17.82,17.82,0,0,0-.9,7.38C396.82,143.67,399.73,150.79,399.1,152.31Z"/><path class="cls-14" d="M356.78,129.62s-.92-2.25-1.93-2.34-4.23-.6-4.46-.14a3.17,3.17,0,0,0,.69,2.71c.69.6,5,1.57,5,1.57Z"/><path class="cls-11" d="M376.57,133.49c-.62.94-1.32,2-2.05,2.9a17.42,17.42,0,0,1-3.21,3.22,2.88,2.88,0,0,1-.68.28c-.75.18-2.11-.24-3.74-.95a18,18,0,0,0,2.85,0c1.63-.14,2.11-1.91,4.69-4.56C376,132.75,376.45,133,376.57,133.49Z"/><path class="cls-24" d="M391.49,106.81c-.95,1.57-3.26,4.79-6.35,5.58a13.84,13.84,0,0,0,.09-3.13c0-.33-.07-.52-.07-.52Z"/><path class="cls-14" d="M383.5,109.17s7.61,1.53,8.49-3.23,2.46-7.76-2.37-8.94-6.11.46-6.79,2S381.54,108.65,383.5,109.17Z"/><path class="cls-18" d="M387.22,95.81s-.14,1.61,2.37,4.35,2,8.28,2,8.28,4.11-8.59,1.86-11.13S387.22,95.81,387.22,95.81Z"/><path class="cls-18" d="M390.28,93.71s-3.79-1.27-7.54,2.44c-1.62,1.59-1.38,4.73-.51,6.55,0,0,1.33-3.9,3.75-4.75S390.28,93.71,390.28,93.71Z"/><path class="cls-28" d="M385.87,106.83s-.2.56-1.64.31c0,0-1.2-.22-1.09-.85A3.91,3.91,0,0,1,385.87,106.83Z"/><path class="cls-7" d="M268.15,108.65c2.06,11.71-4.78,21.21-15.28,21.21a19.62,19.62,0,0,1-2.06-.55c9.35-1.13,15.22-9.71,13.29-20.66s-11-20-20.71-21.09a16.4,16.4,0,0,1,2-.12C255.89,87.44,266.08,96.94,268.15,108.65Z"/><path class="cls-7" d="M276.54,114.77c3,0,4.93-2.76,4.33-6.17s-3.51-6.17-6.5-6.17l-.44,0a38.54,38.54,0,0,0-1.54-3.68,5.32,5.32,0,0,0,1.88-5.43c-.58-3.31-3.34-6-6.23-6.17l-3.52,0a4.41,4.41,0,0,0-.52,0l-1.08-1a6,6,0,0,0,.41-3.66c-.6-3.41-3.51-6.17-6.5-6.17h-.07l-2.93,0h-.25a3.15,3.15,0,0,0-.44,0h0a4.07,4.07,0,0,0-2.17.84,4.47,4.47,0,0,0-1.39,1.85l-.21,0q0-.31-.09-.63c-.6-3.41-3.51-6.17-6.5-6.17l-3.21,0h-.25a3.6,3.6,0,0,0-.68.09h0c-.14,0-4.86,1.76-3.25,7.71l-.33.14a8,8,0,0,0-2.61-2.92,5.15,5.15,0,0,0-3.62-1H226c-2.91.07-4.79,2.81-4.2,6.17A8,8,0,0,0,224,86.78l-.29.39h-1l-.43,0a4.58,4.58,0,0,0-.53,0l-2.48,0H219l-.35,0h0a1.33,1.33,0,0,0-.28,0c-2.62.36-4.25,3-3.69,6.13a7.78,7.78,0,0,0,4.53,5.77,29.71,29.71,0,0,0-.19,3.3l-1.09,0h-.68v0c-2.68.31-4.36,2.94-3.79,6.14.6,3.41,3.51,6.17,6.5,6.17l1.21,0c.29.8.6,1.58.94,2.36-2.1.76-3.31,3.11-2.82,5.91.58,3.27,3.3,6,6.16,6.15h0l.34,0,.43,0,2.75,0h.07a4.7,4.7,0,0,0,1.08-.13c.45.45.9.89,1.36,1.31a6,6,0,0,0-.56,3.95c.61,3.41,3.52,6.18,6.51,6.18l3.18-.05h.07a4.24,4.24,0,0,0,3.95-2.61c.36.1.73.19,1.09.27,0,.21.05.42.08.63.6,3.41,3.52,6.17,6.51,6.17l3.25,0h.22c2.86-.14,4.69-2.85,4.1-6.17,0-.21-.08-.42-.13-.63l.31-.08a6.43,6.43,0,0,0,4.8,2.52l3.13-.06h.12c3,0,4.93-2.77,4.33-6.18a8.11,8.11,0,0,0-1.55-3.47c.4-.51.78-1.05,1.15-1.61h3.74c3,0,4.93-2.77,4.32-6.18a7.79,7.79,0,0,0-4.14-5.6c.08-.87.12-1.76.13-2.66Zm-23.8,14.64c-10.53,0-20.72-9.4-22.77-21s4.84-21,15.37-21,20.72,9.4,22.77,21S263.27,129.41,252.74,129.41Z"/><path class="cls-9" d="M276.47,114.77c3,0,4.93-2.76,4.33-6.17s-3.51-6.17-6.5-6.17l-.44,0a38.54,38.54,0,0,0-1.54-3.68,5.3,5.3,0,0,0,1.88-5.43c-.6-3.41-3.51-6.18-6.5-6.18a4.22,4.22,0,0,0-2.81,1c-.66-.67-1.34-1.32-2.05-1.93a6,6,0,0,0,.42-3.66c-.6-3.41-3.51-6.17-6.5-6.17a4.34,4.34,0,0,0-4.29,3.64,25.51,25.51,0,0,0-3.17-.93q0-.31-.09-.63c-.6-3.41-3.51-6.17-6.5-6.17s-4.92,2.76-4.32,6.17c0,.21.08.42.14.63a21.29,21.29,0,0,0-3.48,1.19,6.84,6.84,0,0,0-5.72-3.9c-3,0-4.92,2.76-4.32,6.17a8,8,0,0,0,2.12,4.13c-.44.59-.86,1.21-1.25,1.85a6,6,0,0,0-3.7-1.42c-3,0-4.93,2.77-4.32,6.18a7.74,7.74,0,0,0,4.53,5.77,30.38,30.38,0,0,0-.2,3.47,5.09,5.09,0,0,0-1.22-.15c-3,0-4.93,2.76-4.33,6.17s3.51,6.17,6.5,6.17a4.47,4.47,0,0,0,1.17-.15c.3.84.63,1.67,1,2.48-2.09.77-3.3,3.12-2.81,5.91.6,3.41,3.51,6.18,6.5,6.18a4.19,4.19,0,0,0,3.18-1.4c.81.89,1.65,1.73,2.52,2.53a5.91,5.91,0,0,0-.56,4c.6,3.41,3.51,6.18,6.5,6.18a4.36,4.36,0,0,0,4.29-3.63,27.3,27.3,0,0,0,4,1.24,4.52,4.52,0,0,0,.08.63c.6,3.41,3.51,6.17,6.5,6.17s4.93-2.76,4.32-6.17c0-.21-.08-.42-.13-.63a20.38,20.38,0,0,0,2.95-1,6.71,6.71,0,0,0,5.41,3.36c3,0,4.93-2.77,4.32-6.18a8,8,0,0,0-1.54-3.47,21.78,21.78,0,0,0,1.76-2.62,5.68,5.68,0,0,0,3.13,1c3,0,4.92-2.77,4.32-6.18a7.81,7.81,0,0,0-4.14-5.6c.08-.87.12-1.76.12-2.66Zm-23.73,14.64c-10.53,0-20.72-9.4-22.77-21s4.84-21,15.37-21,20.72,9.4,22.77,21S263.27,129.41,252.74,129.41Z"/><path class="cls-7" d="M303.55,109.49c1.57,9-3.65,16.22-11.68,16.22a13.24,13.24,0,0,1-1.58-.43c7.15-.86,11.64-7.42,10.16-15.79s-8.38-15.26-15.83-16.12a12.83,12.83,0,0,1,1.53-.09C294.18,93.28,302,100.54,303.55,109.49Z"/><path class="cls-7" d="M310,114.17c2.29,0,3.77-2.11,3.31-4.72s-2.68-4.72-5-4.72l-.34,0a27.71,27.71,0,0,0-1.17-2.81,4.08,4.08,0,0,0,1.44-4.16,5.62,5.62,0,0,0-4.77-4.71l-2.69,0a2.6,2.6,0,0,0-.4,0c-.27-.26-.54-.51-.82-.75a4.73,4.73,0,0,0,.32-2.81c-.46-2.6-2.69-4.71-5-4.71h-.05l-2.24,0h-.19l-.34,0h0a3.21,3.21,0,0,0-1.65.64A3.39,3.39,0,0,0,289.35,87l-.16,0c0-.16,0-.32-.07-.48-.46-2.61-2.68-4.72-5-4.72l-2.45,0h-.2a3,3,0,0,0-.52.07h0c-.11,0-3.72,1.35-2.48,5.89l-.25.11a6.22,6.22,0,0,0-2-2.23,4,4,0,0,0-2.77-.73h-2.14c-2.23,0-3.66,2.14-3.21,4.71a6.15,6.15,0,0,0,1.62,3.16l-.22.3h-.74l-.33,0a2.73,2.73,0,0,0-.41,0l-1.9,0h-.45l-.22,0c-2,.27-3.24,2.27-2.82,4.68a6,6,0,0,0,3.47,4.42,20.8,20.8,0,0,0-.15,2.52l-.83,0h-.52v0c-2.05.23-3.33,2.24-2.9,4.69.46,2.61,2.69,4.72,5,4.72h.92c.22.6.46,1.2.72,1.79a3.85,3.85,0,0,0-2.15,4.52,5.61,5.61,0,0,0,4.71,4.71h.26l.33,0,2.1,0h.06a3.12,3.12,0,0,0,.82-.1c.34.35.69.68,1,1a4.55,4.55,0,0,0-.42,3c.46,2.61,2.68,4.72,5,4.72l2.43,0h.06a3.24,3.24,0,0,0,3-2l.83.21a4,4,0,0,0,.06.47c.46,2.61,2.69,4.72,5,4.72l2.49,0h.17c2.19-.1,3.58-2.17,3.14-4.71,0-.17-.07-.33-.11-.48l.24-.07a4.9,4.9,0,0,0,3.67,1.93l2.39,0h.09c2.29,0,3.77-2.11,3.31-4.72a6.08,6.08,0,0,0-1.18-2.65c.31-.4.6-.81.88-1.24h2.86c2.28,0,3.76-2.11,3.3-4.72a5.94,5.94,0,0,0-3.17-4.28c.06-.67.1-1.35.1-2Zm-18.19,11.19c-8,0-15.85-7.18-17.41-16s3.7-16,11.75-16,15.84,7.18,17.4,16S299.82,125.36,291.77,125.36Z"/><path class="cls-4" d="M309.91,114.17c2.29,0,3.77-2.11,3.31-4.72s-2.69-4.72-5-4.72l-.34,0a27.77,27.77,0,0,0-1.18-2.81,4,4,0,0,0,1.44-4.16c-.46-2.6-2.68-4.72-5-4.72a3.19,3.19,0,0,0-2.14.79c-.51-.51-1-1-1.57-1.47a4.65,4.65,0,0,0,.32-2.81c-.46-2.6-2.68-4.71-5-4.71a3.32,3.32,0,0,0-3.28,2.78,21,21,0,0,0-2.43-.71,3.93,3.93,0,0,0-.06-.48c-.46-2.61-2.68-4.72-5-4.72s-3.77,2.11-3.31,4.72c0,.16.07.32.11.48a15.33,15.33,0,0,0-2.65.91,5.24,5.24,0,0,0-4.38-3c-2.28,0-3.76,2.11-3.31,4.71a6.16,6.16,0,0,0,1.63,3.16c-.34.45-.66.93-1,1.42a4.51,4.51,0,0,0-2.83-1.09c-2.28,0-3.76,2.12-3.3,4.72a5.92,5.92,0,0,0,3.46,4.42,23,23,0,0,0-.15,2.65,4.23,4.23,0,0,0-.93-.12c-2.29,0-3.77,2.12-3.31,4.72s2.68,4.72,5,4.72a3.24,3.24,0,0,0,.89-.12c.23.65.48,1.28.75,1.91-1.6.58-2.52,2.38-2.15,4.51.46,2.61,2.69,4.72,5,4.72a3.2,3.2,0,0,0,2.44-1.07,27,27,0,0,0,1.92,1.94,4.55,4.55,0,0,0-.43,3c.46,2.61,2.69,4.72,5,4.72a3.32,3.32,0,0,0,3.28-2.77,22.52,22.52,0,0,0,3.06.95c0,.15,0,.31.07.48.46,2.6,2.68,4.72,5,4.72s3.76-2.12,3.3-4.72c0-.17-.06-.33-.1-.48a17.1,17.1,0,0,0,2.26-.75,5.1,5.1,0,0,0,4.13,2.57c2.29,0,3.77-2.11,3.31-4.72a6.09,6.09,0,0,0-1.19-2.65,15.93,15.93,0,0,0,1.35-2,4.42,4.42,0,0,0,2.39.76c2.29,0,3.77-2.11,3.31-4.72a6,6,0,0,0-3.17-4.28c.06-.67.09-1.35.1-2Zm-18.14,11.19c-8,0-15.85-7.18-17.41-16s3.7-16,11.75-16,15.84,7.18,17.4,16S299.82,125.36,291.77,125.36Z"/><polygon class="cls-9" points="154.95 116.37 164.87 153.39 173.68 153.39 163.76 116.37 154.95 116.37"/><polygon class="cls-9" points="166.75 112.59 177.68 153.39 186.5 153.39 175.56 112.59 166.75 112.59"/><polygon class="cls-9" points="177.68 106.08 190.36 153.39 199.17 153.39 186.5 106.08 177.68 106.08"/><polygon class="cls-9" points="198.56 101.28 189.74 101.28 202.42 148.59 211.23 148.59 198.56 101.28"/><path class="cls-9" d="M156.26,112.75l9.44-7.26.71,2.67a1.67,1.67,0,0,0,.92,1,1.09,1.09,0,0,0,1.19-.11l10.08-9.64,1.41,1.27c.17.15.41.08.38-.12l-.45-4a.33.33,0,0,0-.3-.27l-4.18-.13c-.21,0-.26.23-.09.38l1.26,1.14-8.53,8.15-.65-2.44a1.65,1.65,0,0,0-.88-1,1.11,1.11,0,0,0-1.16,0l-10.92,8.4a1.08,1.08,0,0,0,.07,1.59,1.57,1.57,0,0,0,1.12.54A1,1,0,0,0,156.26,112.75Z"/><path class="cls-29" d="M153.52,143.26l.37,1.44A4,4,0,0,1,153.52,143.26Z"/><path class="cls-29" d="M340.85,160.44H158l-4.12-15.74c3.79,8.14,34.6-.76,41.5-5.71,12.62-9.12,12.72-18.09,25.78-24.18,17.69-8.26,35.39,4.67,49.61,1.14,43.64-10.81,79.82-46.17,80.93-47.29C339.46,97,309.61,112,332.55,121.25,356.36,130.89,340.85,160.44,340.85,160.44Z"/><path class="cls-9" d="M157.42,80.4a18.81,18.81,0,0,0-3.22-1.33,13.13,13.13,0,0,1-1.61-.64,1.6,1.6,0,0,1-.79-.93,1.11,1.11,0,0,1,.17-1.14,1.48,1.48,0,0,1,1.12-.4,4.42,4.42,0,0,1,1.38.31,4.47,4.47,0,0,0,1.19.32.84.84,0,0,0,.67-.26.72.72,0,0,0,.08-.7,1.76,1.76,0,0,0-.83-.95,5.54,5.54,0,0,0-3-.75,3.58,3.58,0,0,0-2.67.93,2.54,2.54,0,0,0-.49,2.71,4.53,4.53,0,0,0,2.41,2.75l3.26,1.18a3.06,3.06,0,0,1,2.1,1.79,1.47,1.47,0,0,1-.16,1.35,1.39,1.39,0,0,1-1.2.56,5.4,5.4,0,0,1-1.48-.21l-1-.34a3.57,3.57,0,0,0-.91-.25.81.81,0,0,0-.68.27.73.73,0,0,0-.08.73c.19.63.86,1.12,2,1.47a8.41,8.41,0,0,0,2.47.39,3.74,3.74,0,0,0,2.95-1.07,3,3,0,0,0,.44-3.09A4.67,4.67,0,0,0,157.42,80.4Z"/><path class="cls-9" d="M163.09,76.14h1.84c.94,0,1.31-.35,1.1-1S165.22,74,164.26,74h-5.88c-1,0-1.34.35-1.13,1.06s.8,1,1.75,1h1.81l2.95,9.66c.3,1,.83,1.46,1.57,1.46s1-.49.71-1.46Z"/><path class="cls-9" d="M179,85.58l-6.93-10.36A2.53,2.53,0,0,0,170,73.88c-.78,0-1.2.48-1.26,1.45L168,85.6a1.93,1.93,0,0,0,.09.64,1.46,1.46,0,0,0,.54.75,1.54,1.54,0,0,0,.87.27c.5,0,.77-.31.81-.94l.08-2.16h5.28l1.36,2.1a1.79,1.79,0,0,0,1.47,1,.92.92,0,0,0,.71-.27.73.73,0,0,0,.1-.73A2.59,2.59,0,0,0,179,85.58Zm-8.49-3.42.21-5.52a1.64,1.64,0,0,1,0-.18l3.67,5.7Z"/><path class="cls-9" d="M188.4,85.1,184,81.5q3.45-.25,2.44-3.57A5.11,5.11,0,0,0,184.27,75a6.28,6.28,0,0,0-3.44-.95h-2.56c-1,0-1.27.5-1,1.49l3.14,10.3c.3,1,.83,1.47,1.57,1.47s1-.49.71-1.46l-1.31-4.29.12.09,5.67,5a2.25,2.25,0,0,0,1.38.7.79.79,0,0,0,.67-.28.76.76,0,0,0,.08-.72A2.64,2.64,0,0,0,188.4,85.1Zm-5.94-5a7.23,7.23,0,0,1-1.53-.11l-1.17-3.85h1.67A2.55,2.55,0,0,1,184.14,78C184.56,79.38,184,80.06,182.46,80.06Z"/><path class="cls-9" d="M192,76.14h1.84c.94,0,1.31-.35,1.1-1S194.1,74,193.14,74h-5.88c-1,0-1.34.35-1.13,1.06s.8,1,1.75,1h1.81l3,9.66c.29,1,.82,1.46,1.56,1.46s1-.49.71-1.46Z"/><path class="cls-9" d="M205.83,85.7a1.69,1.69,0,0,0-.64-.87,1.59,1.59,0,0,0-1-.37.86.86,0,0,0-.76.37,1,1,0,0,0-.1.87,1.75,1.75,0,0,0,.64.88,1.65,1.65,0,0,0,1,.37.89.89,0,0,0,.76-.37A1,1,0,0,0,205.83,85.7Z"/><path class="cls-9" d="M204.43,81.65l-2-6.53c-.29-1-.81-1.42-1.54-1.42s-.94.47-.66,1.42l2,6.53c.3,1,.82,1.48,1.56,1.48S204.73,82.63,204.43,81.65Z"/><path class="cls-9" d="M314.86,160.44H226.1a37.83,37.83,0,0,0,11.72-16.25c4.65-13.06,20.53-7.67,34.54-9.92s42.37-30.85,43.34-27.55c.52,1.76-5.81,25,3.49,27.62S331.88,151.42,314.86,160.44Z"/><path class="cls-30" d="M440.61,227.09H.39a.4.4,0,0,1-.39-.4H0a.4.4,0,0,1,.39-.39H440.61a.4.4,0,0,1,.39.39h0A.4.4,0,0,1,440.61,227.09Z"/></svg>