<svg id="Layer_1" data-name="Layer 1" xmlns="http://www.w3.org/2000/svg" viewBox="0 0 24.18 24.18"><defs><style>.cls-1{fill:#606060;}</style></defs><title>kh-hh</title><path class="cls-1" d="M5.28,6.75a.36.36,0,0,0,.36-.36V5.05a.36.36,0,0,0-.71,0V6.39A.36.36,0,0,0,5.28,6.75Z"/><path class="cls-1" d="M11.35,15.51a.36.36,0,0,0-.35-.27H2a.36.36,0,0,0-.35.27,5,5,0,1,0,9.69,0ZM6.5,21a4.29,4.29,0,0,1-4.29-4.29A4.24,4.24,0,0,1,2.29,16h8.43A4.28,4.28,0,0,1,6.5,21Z"/><path class="cls-1" d="M23.82,22.24H22.48v-.87a.36.36,0,0,0-.36-.36h-.25V5.55h1.47a.36.36,0,0,0,.36-.36V4a.36.36,0,0,0-.36-.36H21.87V2.13a.36.36,0,0,0-.36-.36H20.29a.36.36,0,0,0-.36.36V3.61H18.39V1.93A1,1,0,0,0,18.34,0H14.05A1,1,0,0,0,14,1.93V3.61h-.56a.36.36,0,0,0-.36.36V5.19a.36.36,0,0,0,.36.36H14v9.22a2.19,2.19,0,0,0,4.39,0V5.55h1.54V21h-.26a.36.36,0,0,0-.36.36v.87H9.39a6.22,6.22,0,0,0-.08-11.06V10h0V8.63h0V7.25h0V5.87h0V4.5h0V3.32a1,1,0,0,0-.05-1.93H3.75A1,1,0,0,0,3.7,3.32v7.86a6.22,6.22,0,0,0-.08,11.06H.36A.36.36,0,0,0,0,22.6v1.22a.36.36,0,0,0,.36.36H23.82a.36.36,0,0,0,.36-.36V22.6A.36.36,0,0,0,23.82,22.24ZM20.65,2.49h.51V3.61h-.51ZM13.8,1a.26.26,0,0,1,.26-.26h4.29a.26.26,0,1,1,0,.51H14.05A.26.26,0,0,1,13.8,1Zm.92,1h3V3.61h-3ZM13.8,4.32H23v.51H13.8Zm3.88,1.89h-.87a.36.36,0,0,0,0,.71h.87v.66h-.87a.36.36,0,0,0,0,.71h.87V9h-.87a.36.36,0,0,0,0,.71h.87v.66h-.87a.36.36,0,0,0,0,.71h.87v.66h-.87a.36.36,0,0,0,0,.71h.87v2.33a1.48,1.48,0,1,1-3,0V5.55h3Zm3-.66h.51V21h-.51ZM20,21.73h1.73v.51H20ZM3.49,2.35a.26.26,0,0,1,.26-.26H9.26a.26.26,0,0,1,0,.51H3.75A.26.26,0,0,1,3.49,2.35ZM1,16.73a5.52,5.52,0,0,1,3.21-5,.36.36,0,0,0,.21-.32V3.32H8.59v.81H7.73a.36.36,0,0,0,0,.71h.87v.66H7.73a.36.36,0,0,0,0,.71h.87v.66H7.73a.36.36,0,0,0,0,.71h.87v.66H7.73a.36.36,0,1,0,0,.71h.87v.66H7.73a.36.36,0,0,0,0,.71h.87v1a.36.36,0,0,0,.21.32,5.51,5.51,0,1,1-7.81,5Zm22.47,6.73H.71V23H23.47Z"/><path class="cls-1" d="M5.59,17.35a1,1,0,1,0,1,1A1,1,0,0,0,5.59,17.35Zm0,1.22a.26.26,0,1,1,.26-.26A.26.26,0,0,1,5.59,18.58Z"/><path class="cls-1" d="M9,16.15a1,1,0,1,0,1,1A1,1,0,0,0,9,16.15Zm0,1.22a.26.26,0,1,1,.26-.26A.26.26,0,0,1,9,17.38Z"/><path class="cls-1" d="M5.23,12.78a1,1,0,1,0,1-1A1,1,0,0,0,5.23,12.78Zm1-.26a.26.26,0,1,1-.26.26A.26.26,0,0,1,6.2,12.53Z"/></svg>