<svg id="Layer_1" data-name="Layer 1" xmlns="http://www.w3.org/2000/svg" viewBox="0 0 27 25"><defs><style>.cls-1{fill:#606060;}</style></defs><title>kh-ta</title><path class="cls-1" d="M24.8,4.38H14.22L12.8.34A.53.53,0,0,0,12.3,0H2.2A2.14,2.14,0,0,0,0,2.07V18.56a2.14,2.14,0,0,0,2.2,2.07H12.91l1.43,4a.53.53,0,0,0,.5.34h10A2.14,2.14,0,0,0,27,22.93V6.44A2.14,2.14,0,0,0,24.8,4.38ZM2.2,19.63a1.11,1.11,0,0,1-1.14-1.07V2.07A1.11,1.11,0,0,1,2.2,1h9.72l3.73,10.59h0l2.83,8Zm16.25-3.24-1.57-4.45M14,20.62h4l-2.93,2.93Zm2.51-9.68-2-5.57H24.8a1.11,1.11,0,0,1,1.14,1.07V22.93h0A1.11,1.11,0,0,1,24.8,24H16.06l3.53-3.54h0l0,0a.47.47,0,0,0,.07-.45l-.88-2.5"/><path class="cls-1" d="M7.38,9.23V10H5v.9H7.18v.72H5v1h2.4v.77H4V9.23Z"/><path class="cls-1" d="M9.06,9.23,10.92,12h0V9.23h.92v4.19h-1L9,10.61H9v2.8H8.09V9.23Z"/><path class="cls-1" d="M18.17,11.5c.64,0,1.41.13,1.41.86v1.58a1.47,1.47,0,0,0,.11.67h-.9a1.17,1.17,0,0,1-.06-.29,1.52,1.52,0,0,1-1.08.37c-.62,0-1.1-.28-1.1-.9,0-1.38,2.18-.64,2.14-1.32,0-.35-.26-.41-.57-.41s-.55.13-.59.46h-.89C16.71,11.74,17.45,11.5,18.17,11.5Zm.39-1.13.69.83h-.73l-.39-.47-.4.47h-.67l.69-.83ZM18,13.31c-.27,0-.52.13-.52.45s.26.39.54.39a.63.63,0,0,0,.72-.7v-.31A1.82,1.82,0,0,1,18,13.31Z"/><path class="cls-1" d="M22.59,10.43l1.66,4.19h-1l-.34-.93H21.23l-.35.93h-1l1.68-4.19ZM22.64,13l-.56-1.54h0L21.49,13Z"/></svg>