<svg id="Layer_1" data-name="Layer 1" xmlns="http://www.w3.org/2000/svg" viewBox="0 0 23 23"><defs><style>.cls-1{fill:#1476c6;}</style></defs><title>kh-toan-light</title><g id="_Group_" data-name="&lt;Group&gt;"><path class="cls-1" d="M22.52,11a.48.48,0,0,1,0,1H22V11Z"/><rect class="cls-1" x="11.98" y="11.02" width="10.06" height="0.96"/><path class="cls-1" d="M20.6,23H11.5a.47.47,0,0,0,.48-.48V22H20.6A1.44,1.44,0,0,0,22,20.6V12h.48A.47.47,0,0,0,23,11.5v9.1A2.4,2.4,0,0,1,20.6,23Z"/><path class="cls-1" d="M23,2.4v9.1a.47.47,0,0,0-.48-.48H22V2.4A1.44,1.44,0,0,0,20.6,1H12V.48A.47.47,0,0,0,11.5,0h9.1A2.4,2.4,0,0,1,23,2.4Z"/><path class="cls-1" d="M19.17,5.75a.48.48,0,0,1,0,1H15.33a.48.48,0,0,1,0-1Z"/><path class="cls-1" d="M19.17,15.33a.48.48,0,0,1,0,1H15.33a.48.48,0,0,1,0-1Z"/><path class="cls-1" d="M19.17,18.21a.48.48,0,0,1,0,1H15.33a.48.48,0,0,1,0-1Z"/><path class="cls-1" d="M12,22v.48a.48.48,0,1,1-1,0V22Z"/><rect class="cls-1" x="11.02" y="11.98" width="0.96" height="10.06"/><rect class="cls-1" x="11.02" y="11.02" width="0.96" height="0.96"/><rect class="cls-1" x="11.02" y="0.96" width="0.96" height="10.06"/><path class="cls-1" d="M12,.48V1H11V.48a.48.48,0,0,1,1,0Z"/><rect class="cls-1" x="0.96" y="11.02" width="10.06" height="0.96"/><path class="cls-1" d="M7.67,5.75a.48.48,0,0,1,0,1H6.23v-1Z"/><path class="cls-1" d="M7.52,18.35a.46.46,0,0,1,0,.67.46.46,0,0,1-.67,0l-1.1-1.1.67-.67Z"/><path class="cls-1" d="M6.85,15.48a.47.47,0,0,1,.67.67l-1.1,1.1-.67-.67Z"/><rect class="cls-1" x="5.27" y="16.77" width="0.95" height="0.95" transform="translate(-10.51 9.12) rotate(-45)"/><path class="cls-1" d="M6.23,6.71V8.15a.48.48,0,0,1-1,0V6.71Z"/><rect class="cls-1" x="5.27" y="5.75" width="0.96" height="0.96"/><path class="cls-1" d="M6.23,4.31V5.75h-1V4.31a.48.48,0,0,1,1,0Z"/><path class="cls-1" d="M5.75,16.58l-.67.67L4,16.15a.47.47,0,0,1,.67-.67Z"/><path class="cls-1" d="M5.27,5.75v1H3.83a.48.48,0,0,1,0-1Z"/><path class="cls-1" d="M4.65,19A.46.46,0,0,1,4,19a.46.46,0,0,1,0-.67l1.1-1.1.67.67Z"/><path class="cls-1" d="M1,11v1H.48a.48.48,0,0,1,0-1Z"/><path class="cls-1" d="M0,2.4A2.4,2.4,0,0,1,2.4,0h9.1A.47.47,0,0,0,11,.48V1H2.4A1.44,1.44,0,0,0,1,2.4V11H.48A.47.47,0,0,0,0,11.5Z"/><path class="cls-1" d="M1,20.6A1.44,1.44,0,0,0,2.4,22H11v.48a.47.47,0,0,0,.48.48H2.4A2.4,2.4,0,0,1,0,20.6V11.5A.47.47,0,0,0,.48,12H1Z"/></g></svg>