<svg id="Layer_1" data-name="Layer 1" xmlns="http://www.w3.org/2000/svg" viewBox="0 0 26.93 26.9"><defs><style>.cls-1{fill:#606060;}</style></defs><title>kh-vatly</title><path class="cls-1" d="M22.72,12.52l1.95-3.16a1.73,1.73,0,1,0-.74-.45L22,12.1l-5.62.08L12.63,6.59,14.9,3.37a1.72,1.72,0,0,0,.64.12,1.74,1.74,0,1,0-1.35-.61L11.88,6.15l-4.19.06A1.74,1.74,0,1,0,4.75,7.87L2.93,10.79a2.16,2.16,0,0,0-.79-.14A2.18,2.18,0,1,0,3,14.84l2.67,4L3.38,22.08A1.72,1.72,0,0,0,2.75,22a1.74,1.74,0,1,0,1.35.61L6.41,19.3,12,19.21,15.25,24a1.3,1.3,0,1,0,2.27,1.19l2.74,0a2.18,2.18,0,1,0,3.62-2l2.85-4.58Zm2.45-5.7a.87.87,0,1,1,0,1.74.85.85,0,0,1-.47-.13.87.87,0,0,1,.45-1.61ZM15.5.87a.87.87,0,1,1,0,1.74A.84.84,0,0,1,15,2.45a.86.86,0,0,1-.37-.69A.87.87,0,0,1,15.5.87ZM7.69,7.08,11.87,7l3.72,5.61L12,18.34l-5.62.08-2.7-4.07a2.16,2.16,0,0,0,0-3.11L5.49,8.33A1.71,1.71,0,0,0,6,8.41,1.74,1.74,0,0,0,7.69,7.08ZM6,5.8A.87.87,0,1,1,6,7.54a.88.88,0,0,1-.88-.86A.87.87,0,0,1,6,5.8Zm-5.12,7a1.31,1.31,0,0,1,1.29-1.33,1.31,1.31,0,0,1,0,2.61A1.31,1.31,0,0,1,.87,12.84ZM2.78,24.57a.87.87,0,1,1,0-1.74.84.84,0,0,1,.52.16.86.86,0,0,1,.37.69A.87.87,0,0,1,2.78,24.57Zm13.51.67a.44.44,0,0,1-.44-.43.44.44,0,0,1,.2-.37.4.4,0,0,1,.23-.07.44.44,0,0,1,0,.87Zm4-.93-2.74,0a1.3,1.3,0,0,0-1.24-.85,1.33,1.33,0,0,0-.3,0L12.8,18.77l3.56-5.71L22,13l3.72,5.61-2.56,4.11a2.16,2.16,0,0,0-.79-.14,2.18,2.18,0,0,0-2.11,1.77ZM22.4,26a1.31,1.31,0,0,1,0-2.61,1.31,1.31,0,0,1,1.33,1.29A1.31,1.31,0,0,1,22.4,26Z"/><rect class="cls-1" x="6.07" y="10.56" width="3.48" height="0.87" transform="translate(-0.16 0.11) rotate(-0.83)"/><rect class="cls-1" x="10.43" y="10.51" width="1.74" height="0.87" transform="translate(-0.16 0.17) rotate(-0.83)"/><rect class="cls-1" x="6.1" y="12.29" width="6.1" height="0.87" transform="translate(-0.18 0.13) rotate(-0.83)"/><rect class="cls-1" x="11.35" y="13.99" width="0.87" height="0.87" transform="translate(-0.21 0.17) rotate(-0.83)"/><rect class="cls-1" x="9.61" y="14.02" width="0.87" height="0.87" transform="translate(-0.21 0.15) rotate(-0.83)"/><rect class="cls-1" x="6.12" y="14.05" width="2.61" height="0.87" transform="translate(-0.21 0.11) rotate(-0.83)"/><rect class="cls-1" x="16.17" y="16.52" width="3.48" height="0.87" transform="translate(-0.24 0.26) rotate(-0.83)"/><rect class="cls-1" x="20.53" y="16.46" width="1.74" height="0.87" transform="translate(-0.24 0.31) rotate(-0.83)"/><rect class="cls-1" x="16.2" y="18.24" width="6.1" height="0.87" transform="translate(-0.27 0.28) rotate(-0.83)"/><rect class="cls-1" x="21.45" y="19.94" width="0.87" height="0.87" transform="translate(-0.29 0.32) rotate(-0.83)"/><rect class="cls-1" x="19.71" y="19.97" width="0.87" height="0.87" transform="translate(-0.29 0.3) rotate(-0.83)"/><rect class="cls-1" x="16.23" y="20" width="2.61" height="0.87" transform="translate(-0.3 0.26) rotate(-0.83)"/></svg>