<svg id="Layer_1" data-name="Layer 1" xmlns="http://www.w3.org/2000/svg" viewBox="0 0 307.63 27.34"><defs><style>.cls-1{fill:#fff;}.cls-2{fill:#ffda00;}</style></defs><title>logo-foot</title><path class="cls-1" d="M16.22,16.08a6.55,6.55,0,0,1,1.85,4.2A6.12,6.12,0,0,1,18,22a5.09,5.09,0,0,1-.73,1.88A11.68,11.68,0,0,1,16,25.6a3.76,3.76,0,0,1-1.3,1,10.68,10.68,0,0,1-6.22,1q-4.65-.4-6.07-1.94V20.45a.83.83,0,0,1,.16.2,12,12,0,0,0,3,3.88,7,7,0,0,0,3.74,1.4q4,.38,5.16-1.94a2.78,2.78,0,0,1,.2-.49A5,5,0,0,0,14.92,22a4.29,4.29,0,0,0-1-3.09,26,26,0,0,0-4.53-3.63,35.75,35.75,0,0,1-5.75-4.53A6.35,6.35,0,0,1,2.17,6.11a5.85,5.85,0,0,1,2.5-4.56A8.28,8.28,0,0,1,10.51.09a14.71,14.71,0,0,1,4.41,1.07c1.21.52,1.78,1,1.7,1.4,0,.25.05,1.8.08,4.66.15.27-.1-.13-.77-1.2a11.55,11.55,0,0,0-2.46-2.8A6.26,6.26,0,0,0,9.84,1.94a4.86,4.86,0,0,0-3.24.7A3.33,3.33,0,0,0,5.24,5.32a4.35,4.35,0,0,0,1,3,17.56,17.56,0,0,0,3.9,3.09A29.47,29.47,0,0,1,16.22,16.08Z"/><path class="cls-1" d="M36.39,27Q34.92,24.58,25.75,9.77l0,10.39v3.13a4.94,4.94,0,0,0,.57,2.58A2.23,2.23,0,0,0,28,27v0H21.42v0A2.23,2.23,0,0,0,23,25.87a4.94,4.94,0,0,0,.57-2.58V19.67l.12-15.13c0-1.79,0-3.11-.08-4h.12l13.7,20.61Q40,17.35,51.51.79v0h0l0,.08,0,22.3a4.94,4.94,0,0,0,.57,2.58,2.24,2.24,0,0,0,1.59,1.09v0l-3.42,0h-.67c-1,0-2.27,0-3.66,0v0a2.29,2.29,0,0,0,1.61-1.09,4.59,4.59,0,0,0,.55-2.58L48,9.24,36.39,27v0h0v0Z"/><path class="cls-1" d="M60.72,27h-4.8v0A2.12,2.12,0,0,0,57.34,26c.34-.51.7-1,1.1-1.54a41.58,41.58,0,0,0,2.7-5.55q2.1-4.8,3.21-7.48,2.87-7.37,5-13.19,5.26,13.16,10.43,25.06a6.88,6.88,0,0,0,1.5,2.56,3.55,3.55,0,0,0,2,1.07v0H77.1q-1.69-4.62-2.67-7.17H63.2Zm12.92-9.11q-.12-.29-4.85-12.32l-5,12.65h10Z"/><path class="cls-1" d="M93.41,27h0l-3.43,0h-.87l-3.42,0v0c1.21-.16,1.91-1.13,2.12-2.88V24a3.22,3.22,0,0,0,0-.62l0-18.83h0v0a4.94,4.94,0,0,0-.57-2.58A2.21,2.21,0,0,0,85.65.79v0L95.49.67a9.68,9.68,0,0,1,5.12,1.4,5.23,5.23,0,0,1,2.33,4.65q0,4.08-4.89,7a1.62,1.62,0,0,0-.75.41Q105,25.81,112.15,26.79l1.34.25-6.3,0a8.35,8.35,0,0,1-6.73-3.5q-4-5.44-6.66-8.74a13.07,13.07,0,0,0-2.68.21l.12,8.28a4.94,4.94,0,0,0,.57,2.58A2.21,2.21,0,0,0,93.41,27ZM99,7.05a4.88,4.88,0,0,0-1.3-3.79,5.79,5.79,0,0,0-4.06-1.19c-1.49,0-2.3.23-2.4.7a1.58,1.58,0,0,0,0,.41l-.12,10.06H92.7q3.3,0,4.82-1.8A6.57,6.57,0,0,0,99,7.05Z"/><path class="cls-1" d="M136.37.58c0,2.56-.05,4.74-.08,6.56h-.16a14.61,14.61,0,0,0-3-3.67q-1.53-1.15-5.28-1.16h-1.49c-.48.06-.74.17-.79.33a.67.67,0,0,0-.08.33l0,20.28a3.15,3.15,0,0,0,.59,1.94,3.8,3.8,0,0,0,1,1,3.47,3.47,0,0,0,1.37.6c.06.05.07.09,0,.12a2,2,0,0,1-1,.08,77.12,77.12,0,0,0-7.84,0,1,1,0,0,1-.79-.16,3.71,3.71,0,0,0,2.27-1,3.07,3.07,0,0,0,1-2.08l0-20.82a.67.67,0,0,0-.39-.62h-2.09q-3.74,0-5.27,1.16a14.38,14.38,0,0,0-3,3.67h-.15c0-1.82-.06-4-.08-6.56l10.83.05Z"/><path class="cls-1" d="M153.89,16.08a6.6,6.6,0,0,1,1.85,4.2,6.17,6.17,0,0,1-.1,1.71,5.07,5.07,0,0,1-.72,1.88,12.41,12.41,0,0,1-1.3,1.73,3.85,3.85,0,0,1-1.3,1,10.72,10.72,0,0,1-6.23,1q-4.64-.4-6.06-1.94V20.45a2,2,0,0,1,.16.2,12,12,0,0,0,3,3.88,6.93,6.93,0,0,0,3.74,1.4q4,.38,5.16-1.94a2.78,2.78,0,0,1,.2-.49,5.29,5.29,0,0,0,.27-1.53,4.38,4.38,0,0,0-1-3.09A26.81,26.81,0,0,0,147,15.25a35.75,35.75,0,0,1-5.75-4.53,6.36,6.36,0,0,1-1.46-4.61,5.91,5.91,0,0,1,2.5-4.56A8.31,8.31,0,0,1,148.18.09a14.71,14.71,0,0,1,4.41,1.07c1.21.52,1.77,1,1.7,1.4,0,.25.05,1.8.07,4.66A13.13,13.13,0,0,1,153.6,6a11.55,11.55,0,0,0-2.46-2.8,6.29,6.29,0,0,0-3.63-1.28,4.89,4.89,0,0,0-3.25.7,3.35,3.35,0,0,0-1.36,2.68,4.36,4.36,0,0,0,1,3,17.56,17.56,0,0,0,3.9,3.09A29.47,29.47,0,0,1,153.89,16.08Z"/><path class="cls-1" d="M183,19.46a5.32,5.32,0,0,1,.16,2,26.85,26.85,0,0,1-.2,3.38,1.46,1.46,0,0,1-.11.28l-.2.21a6.75,6.75,0,0,1-2.25,1.2,19.85,19.85,0,0,1-6.85,1,13.59,13.59,0,0,1-9.8-3.92,13.27,13.27,0,0,1-4.22-9.85v0a13.36,13.36,0,0,1,4.22-9.85A13.59,13.59,0,0,1,173.5,0a19.59,19.59,0,0,1,6.85,1,6.77,6.77,0,0,1,2.25,1.19l.2.21a1.77,1.77,0,0,1,.11.28,26.85,26.85,0,0,1,.2,3.38A5.32,5.32,0,0,1,183,8h-.08a4.78,4.78,0,0,0-.39-1.19,5.82,5.82,0,0,0-1-1.44,11.68,11.68,0,0,0-1.64-1.51,12.47,12.47,0,0,0-2.4-1.42,9.61,9.61,0,0,0-4.1-.74,9.07,9.07,0,0,0-7,3q-2.91,3.22-2.91,8.82V14q0,5.6,2.91,8.82a9,9,0,0,0,7,3,9.61,9.61,0,0,0,4.1-.74,12.47,12.47,0,0,0,2.4-1.42,12.3,12.3,0,0,0,1.64-1.5,6,6,0,0,0,1-1.45,4.66,4.66,0,0,0,.39-1.19Z"/><path class="cls-1" d="M213.83,27l-3.43,0h-.67c-1,0-2.27,0-3.66,0v0a2.21,2.21,0,0,0,1.59-1.09,4.94,4.94,0,0,0,.57-2.58l0-7.5a2.27,2.27,0,0,0-.19-1.15c-.13-.2-.44-.29-.91-.29H193.51c-.58,0-.94.07-1.07.23a2,2,0,0,0-.19,1.13l0,7.58a4.94,4.94,0,0,0,.57,2.58A2.21,2.21,0,0,0,194.45,27v0L191,27h-.67c-1.05,0-2.28,0-3.67,0v0a2.21,2.21,0,0,0,1.6-1.09,4.94,4.94,0,0,0,.57-2.58V4.62h0v0A4.94,4.94,0,0,0,188.25,2a2.24,2.24,0,0,0-1.6-1.09v0h7.84v0a2.18,2.18,0,0,0-1.59,1.22,8.4,8.4,0,0,0-.65,3.52v5.24c0,.93.43,1.4,1.3,1.4h13.38a1.8,1.8,0,0,0,1-.17,2.11,2.11,0,0,0,.27-1.32l0-6.22h0v0A4.94,4.94,0,0,0,207.62,2,2.21,2.21,0,0,0,206,.87v0h7.84v0a2.17,2.17,0,0,0-1.6,1.22,8.4,8.4,0,0,0-.65,3.52V17.44l0,5.85a4.94,4.94,0,0,0,.57,2.58,2.21,2.21,0,0,0,1.6,1.09Z"/><path class="cls-1" d="M245.21,13.73a13.31,13.31,0,0,1-4.09,9.85,13.37,13.37,0,0,1-9.73,4,13.78,13.78,0,0,1-9.89-3.75,13.12,13.12,0,0,1-4.05-10,13.39,13.39,0,0,1,4.09-9.93,14.32,14.32,0,0,1,19.69-.08A13.22,13.22,0,0,1,245.21,13.73Zm-3.9.7q0-5.85-3.07-9.27a9.91,9.91,0,0,0-7.76-3.26A8.16,8.16,0,0,0,223.93,5a12.13,12.13,0,0,0-2.58,8c0,4,1,7.07,3,9.36a10,10,0,0,0,7.88,3.29,8.05,8.05,0,0,0,6.55-3.11A12.42,12.42,0,0,0,241.31,14.43Z"/><path class="cls-1" d="M276.71,13.73a13.31,13.31,0,0,1-4.09,9.85,13.37,13.37,0,0,1-9.73,4A13.75,13.75,0,0,1,253,23.83a13.09,13.09,0,0,1-4.06-10,13.4,13.4,0,0,1,4.1-9.93,14.32,14.32,0,0,1,19.69-.08A13.21,13.21,0,0,1,276.71,13.73Zm-3.9.7q0-5.85-3.07-9.27A9.9,9.9,0,0,0,262,1.9,8.17,8.17,0,0,0,255.43,5a12.13,12.13,0,0,0-2.58,8c0,4,1,7.07,3,9.36a10,10,0,0,0,7.88,3.29,8,8,0,0,0,6.55-3.11A12.42,12.42,0,0,0,272.81,14.43Z"/><path class="cls-1" d="M285.89,22.88A2.25,2.25,0,0,0,288,25.19c.34,0,1.53.08,3.58.08a10.15,10.15,0,0,0,2.52-.29,11.39,11.39,0,0,0,3.48-1.54A3.8,3.8,0,0,0,299,21.52l0,0-.79,5.32,0,.24-.31,0a5.81,5.81,0,0,1-.83,0q-3-.16-7.64-.16-3.39,0-9.09,0v0a2.21,2.21,0,0,0,1.59-1.09,4.94,4.94,0,0,0,.57-2.58l0-14.13h0V4.42h0v0a4.92,4.92,0,0,0-.57-2.57A2.21,2.21,0,0,0,280.3.71v0h7.83v0a2.16,2.16,0,0,0-1.59,1.21,8.46,8.46,0,0,0-.65,3.53Z"/><path class="cls-2" d="M306.58,18l-4.81-4.8a.62.62,0,0,0-.87,0L296.1,18a.62.62,0,0,1-1.05-.44V.84a.61.61,0,0,1,.61-.62H307a.62.62,0,0,1,.62.62V17.6A.62.62,0,0,1,306.58,18Z"/></svg>